<svg width="16" height="17" viewBox="0 0 16 17" fill="none" xmlns="http://www.w3.org/2000/svg">
<path d="M1.33203 3.16634C1.33203 2.42996 1.92898 1.83301 2.66536 1.83301H13.332C14.0684 1.83301 14.6654 2.42996 14.6654 3.16634V13.833C14.6654 14.5694 14.0684 15.1663 13.332 15.1663H2.66536C1.92899 15.1663 1.33203 14.5694 1.33203 13.833V3.16634ZM2.66536 3.16634V13.833H13.332V3.16634H2.66536Z" fill="#646A73"/>
<path d="M8.33203 5.16634C7.96384 5.16634 7.66536 5.46482 7.66536 5.83301C7.66536 6.2012 7.96384 6.49967 8.33203 6.49967H11.332C11.7002 6.49967 11.9987 6.2012 11.9987 5.83301C11.9987 5.46482 11.7002 5.16634 11.332 5.16634H8.33203Z" fill="#646A73"/>
<path d="M3.9987 5.83301C3.9987 5.46482 4.29718 5.16634 4.66536 5.16634H5.9987C6.36689 5.16634 6.66536 5.46482 6.66536 5.83301C6.66536 6.2012 6.36689 6.49967 5.9987 6.49967H4.66536C4.29717 6.49967 3.9987 6.2012 3.9987 5.83301Z" fill="#646A73"/>
<path d="M8.33203 7.83301C7.96384 7.83301 7.66536 8.13148 7.66536 8.49967C7.66536 8.86786 7.96384 9.16634 8.33203 9.16634H11.332C11.7002 9.16634 11.9987 8.86786 11.9987 8.49967C11.9987 8.13148 11.7002 7.83301 11.332 7.83301H8.33203Z" fill="#646A73"/>
<path d="M3.9987 8.49967C3.9987 8.13148 4.29718 7.83301 4.66536 7.83301H5.9987C6.36689 7.83301 6.66536 8.13148 6.66536 8.49967C6.66536 8.86786 6.36689 9.16634 5.9987 9.16634H4.66536C4.29717 9.16634 3.9987 8.86786 3.9987 8.49967Z" fill="#646A73"/>
<path d="M8.33203 10.4997C7.96384 10.4997 7.66536 10.7982 7.66536 11.1663C7.66536 11.5345 7.96384 11.833 8.33203 11.833H11.332C11.7002 11.833 11.9987 11.5345 11.9987 11.1663C11.9987 10.7982 11.7002 10.4997 11.332 10.4997H8.33203Z" fill="#646A73"/>
<path d="M3.9987 11.1663C3.9987 10.7982 4.29718 10.4997 4.66536 10.4997H5.9987C6.36689 10.4997 6.66536 10.7982 6.66536 11.1663C6.66536 11.5345 6.36689 11.833 5.9987 11.833H4.66536C4.29717 11.833 3.9987 11.5345 3.9987 11.1663Z" fill="#646A73"/>
</svg>
