<svg width="70" height="70" viewBox="0 0 70 70" fill="none" xmlns="http://www.w3.org/2000/svg">
<path d="M43.293 38.3203C43.9922 38.3203 44.4707 38.0566 44.7285 37.5293C44.9902 36.998 45.1211 36.4082 45.1211 35.7598C45.1211 35.1738 45.0273 34.6973 44.8398 34.3301C44.543 33.752 44.0312 33.4629 43.3047 33.4629C42.6602 33.4629 42.1914 33.709 41.8984 34.2012C41.6055 34.6934 41.459 35.2871 41.459 35.9824C41.459 36.6504 41.6055 37.207 41.8984 37.6523C42.1914 38.0977 42.6562 38.3203 43.293 38.3203ZM43.334 32.543C44.1426 32.543 44.8262 32.8125 45.3848 33.3516C45.9434 33.8906 46.2227 34.6836 46.2227 35.7305C46.2227 36.7422 45.9766 37.5781 45.4844 38.2383C44.9922 38.8984 44.2285 39.2285 43.1934 39.2285C42.3301 39.2285 41.6445 38.9375 41.1367 38.3555C40.6289 37.7695 40.375 36.9844 40.375 36C40.375 34.9453 40.6426 34.1055 41.1777 33.4805C41.7129 32.8555 42.4316 32.543 43.334 32.543Z" fill="#8C8C8C" fill-opacity="0.5"/>
<path d="M36.3418 32.6133C36.834 32.6133 37.2637 32.7344 37.6309 32.9766C37.8301 33.1133 38.0332 33.3125 38.2402 33.5742V32.7832H39.2129V38.4902C39.2129 39.2871 39.0957 39.916 38.8613 40.377C38.4238 41.2285 37.5977 41.6543 36.3828 41.6543C35.707 41.6543 35.1387 41.502 34.6777 41.1973C34.2168 40.8965 33.959 40.4238 33.9043 39.7793H34.9766C35.0273 40.0605 35.1289 40.2773 35.2812 40.4297C35.5195 40.6641 35.8945 40.7812 36.4062 40.7812C37.2148 40.7812 37.7441 40.4961 37.9941 39.9258C38.1426 39.5898 38.2109 38.9902 38.1992 38.127C37.9883 38.4473 37.7344 38.6855 37.4375 38.8418C37.1406 38.998 36.748 39.0762 36.2598 39.0762C35.5801 39.0762 34.9844 38.8359 34.4727 38.3555C33.9648 37.8711 33.7109 37.0723 33.7109 35.959C33.7109 34.9082 33.9668 34.0879 34.4785 33.498C34.9941 32.9082 35.6152 32.6133 36.3418 32.6133ZM38.2402 35.8359C38.2402 35.0586 38.0801 34.4824 37.7598 34.1074C37.4395 33.7324 37.0312 33.5449 36.5352 33.5449C35.793 33.5449 35.2852 33.8926 35.0117 34.5879C34.8672 34.959 34.7949 35.4453 34.7949 36.0469C34.7949 36.7539 34.9375 37.293 35.2227 37.6641C35.5117 38.0312 35.8984 38.2148 36.3828 38.2148C37.1406 38.2148 37.6738 37.873 37.9824 37.1895C38.1543 36.8027 38.2402 36.3516 38.2402 35.8359Z" fill="#8C8C8C" fill-opacity="0.5"/>
<path d="M29.9336 38.3203C30.6328 38.3203 31.1113 38.0566 31.3691 37.5293C31.6309 36.998 31.7617 36.4082 31.7617 35.7598C31.7617 35.1738 31.668 34.6973 31.4805 34.3301C31.1836 33.752 30.6719 33.4629 29.9453 33.4629C29.3008 33.4629 28.832 33.709 28.5391 34.2012C28.2461 34.6934 28.0996 35.2871 28.0996 35.9824C28.0996 36.6504 28.2461 37.207 28.5391 37.6523C28.832 38.0977 29.2969 38.3203 29.9336 38.3203ZM29.9746 32.543C30.7832 32.543 31.4668 32.8125 32.0254 33.3516C32.584 33.8906 32.8633 34.6836 32.8633 35.7305C32.8633 36.7422 32.6172 37.5781 32.125 38.2383C31.6328 38.8984 30.8691 39.2285 29.834 39.2285C28.9707 39.2285 28.2852 38.9375 27.7773 38.3555C27.2695 37.7695 27.0156 36.9844 27.0156 36C27.0156 34.9453 27.2832 34.1055 27.8184 33.4805C28.3535 32.8555 29.0723 32.543 29.9746 32.543Z" fill="#8C8C8C" fill-opacity="0.5"/>
<path d="M24.8047 30.3926H25.8594V39H24.8047V30.3926Z" fill="#8C8C8C" fill-opacity="0.5"/>
</svg>
